0
SECTION
2
HEADER
9
$INSUNITS
70
4
9
$ACADVER
1
AC1014
9
$HANDSEED
5
FFFF
0
ENDSEC
0
SECTION
2
TABLES
0
TABLE
2
VPORT
5
8
100
AcDbSymbolTable
0
ENDTAB
0
TABLE
2
LTYPE
5
5
100
AcDbSymbolTable
0
LTYPE
5
14
100
AcDbSymbolTableRecord
100
AcDbLinetypeTableRecord
2
BYBLOCK
70
0
0
LTYPE
5
15
100
AcDbSymbolTableRecord
100
AcDbLinetypeTableRecord
2
BYLAYER
70
0
0
LTYPE
5
16
100
AcDbSymbolTableRecord
100
AcDbLinetypeTableRecord
2
DASHED
70
0
3
Dashed __ __ __ __ __ __ __ __ __ __ __ __ __ _
72
65
73
2
40
0.75
49
0.5
74
0
49
-0.25
74
0
0
ENDTAB
0
TABLE
2
LAYER
5
2
100
AcDbSymbolTable
70
2
0
LAYER
5
50
100
AcDbSymbolTableRecord
100
AcDbLayerTableRecord
2
0
70
0
62
7
6
CONTINUOUS
0
ENDTAB
0
TABLE
2
STYLE
5
3
100
AcDbSymbolTable
70
1
0
STYLE
5
11
100
AcDbSymbolTableRecord
100
AcDbTextStyleTableRecord
2
STANDARD
70
0
0
ENDTAB
0
TABLE
2
VIEW
5
6
100
AcDbSymbolTable
70
0
0
ENDTAB
0
TABLE
2
UCS
5
7
100
AcDbSymbolTable
70
0
0
ENDTAB
0
TABLE
2
APPID
5
9
100
AcDbSymbolTable
70
2
0
APPID
5
12
100
AcDbSymbolTableRecord
100
AcDbRegAppTableRecord
2
ACAD
70
0
0
ENDTAB
0
TABLE
2
DIMSTYLE
5
A
100
AcDbSymbolTable
70
1
0
ENDTAB
0
TABLE
2
BLOCK_RECORD
5
1
100
AcDbSymbolTable
70
1
0
BLOCK_RECORD
5
1F
100
AcDbSymbolTableRecord
100
AcDbBlockTableRecord
2
*MODEL_SPACE
0
BLOCK_RECORD
5
1B
100
AcDbSymbolTableRecord
100
AcDbBlockTableRecord
2
*PAPER_SPACE
0
ENDTAB
0
ENDSEC
0
SECTION
2
BLOCKS
0
BLOCK
5
20
100
AcDbEntity
100
AcDbBlockBegin
2
*MODEL_SPACE
0
ENDBLK
5
21
100
AcDbEntity
100
AcDbBlockEnd
0
BLOCK
5
1C
100
AcDbEntity
100
AcDbBlockBegin
2
*PAPER_SPACE
0
ENDBLK
5
1D
100
AcDbEntity
100
AcDbBlockEnd
0
ENDSEC
0
SECTION
2
ENTITIES
0
LWPOLYLINE
5
100
100
AcDbEntity
8
0
100
AcDbPolyline
90
8
70
1
43
0.0
10
148.56915619392839
20
80.193521430798512
10
148.56915619392839
20
69.693521430798555
42
-0.41421356237309503
10
146.56915619392839
20
67.693521430798555
10
136.06915619392845
20
67.693521430798555
42
-0.41421356237310281
10
134.06915619392839
20
69.693521430798555
10
134.06915619392834
20
80.193521430798512
42
-0.41421356237310025
10
136.06915619392842
20
82.193521430798569
10
146.56915619392839
20
82.193521430798512
42
-0.41421356237309243
0
LWPOLYLINE
5
101
100
AcDbEntity
8
0
100
AcDbPolyline
90
8
70
1
43
0.0
10
166.56915619392834
20
82.69352143079854
10
166.56915619392834
20
72.193521430798569
42
-0.41421356237309503
10
164.56915619392831
20
70.193521430798555
10
154.06915619392836
20
70.193521430798583
42
-0.41421356237309503
10
152.06915619392839
20
72.193521430798569
10
152.06915619392839
20
82.69352143079854
42
-0.41421356237309243
10
154.06915619392836
20
84.69352143079854
10
164.56915619392839
20
84.693521430798569
42
-0.4142135623730846
0
LWPOLYLINE
5
102
100
AcDbEntity
8
0
100
AcDbPolyline
90
8
70
1
43
0.0
10
170.06915619392834
20
108.6935214307985
10
170.06915619392834
20
119.19352143079851
42
-0.41421356237309503
10
172.06915619392831
20
121.1935214307985
10
182.56915619392834
20
121.19352143079848
42
-0.41421356237309503
10
184.56915619392831
20
119.19352143079851
10
184.56915619392822
20
108.6935214307985
42
-0.41421356237309503
10
182.56915619392834
20
106.6935214307986
10
172.06915619392831
20
106.69352143079854
42
-0.41421356237309503
0
LWPOLYLINE
5
103
100
AcDbEntity
8
0
100
AcDbPolyline
90
8
70
1
43
0.0
10
184.56915619392831
20
102.19352143079853
10
184.56915619392839
20
91.693521430798555
42
-0.41421356237309503
10
182.56915619392834
20
89.693521430798512
10
172.06915619392831
20
89.693521430798597
42
-0.41421356237309503
10
170.06915619392834
20
91.693521430798555
10
170.06915619392828
20
102.19352143079857
42
-0.41421356237308982
10
172.06915619392831
20
104.19352143079854
10
182.56915619392834
20
104.19352143079848
42
-0.41421356237309503
0
LWPOLYLINE
5
104
100
AcDbEntity
8
0
100
AcDbPolyline
90
8
70
1
43
0.0
10
164.56915619392831
20
104.19352143079854
10
154.06915619392839
20
104.1935214307986
42
-0.41421356237309764
10
152.06915619392842
20
106.19352143079857
10
152.06915619392842
20
116.69352143079855
42
-0.41421356237309503
10
154.06915619392839
20
118.69352143079853
10
164.56915619392831
20
118.69352143079858
42
-0.41421356237308982
10
166.56915619392834
20
116.6935214307986
10
166.56915619392834
20
106.19352143079854
42
-0.41421356237309503
0
LWPOLYLINE
5
105
100
AcDbEntity
8
0
100
AcDbPolyline
90
8
70
1
43
0.0
10
110.56915619392839
20
106.69352143079857
10
100.06915619392841
20
106.69352143079854
42
-0.41421356237310025
10
98.069156193928421
20
108.69352143079854
10
98.069156193928407
20
119.19352143079851
42
-0.41421356237308982
10
100.06915619392841
20
121.19352143079848
10
110.56915619392841
20
121.19352143079851
42
-0.41421356237309243
10
112.56915619392839
20
119.19352143079851
10
112.56915619392834
20
108.69352143079851
42
-0.41421356237309503
0
LWPOLYLINE
5
106
100
AcDbEntity
8
0
100
AcDbPolyline
90
8
70
1
43
0.0
10
134.06915619392839
20
86.693521430798484
10
134.06915619392836
20
97.19352143079854
42
-0.41421356237309243
10
136.06915619392836
20
99.193521430798555
10
146.56915619392839
20
99.193521430798569
42
-0.41421356237308982
10
148.56915619392842
20
97.193521430798583
10
148.56915619392831
20
86.693521430798484
42
-0.41421356237308721
10
146.56915619392845
20
84.693521430798569
10
136.06915619392842
20
84.693521430798484
42
-0.41421356237310025
0
LWPOLYLINE
5
107
100
AcDbEntity
8
0
100
AcDbPolyline
90
8
70
1
43
0.0
10
130.56915619392839
20
99.693521430798569
10
130.56915619392834
20
89.193521430798484
42
-0.41421356237309243
10
128.56915619392842
20
87.19352143079854
10
118.06915619392838
20
87.193521430798484
42
-0.41421356237309503
10
116.06915619392838
20
89.193521430798484
10
116.06915619392838
20
99.693521430798569
42
-0.41421356237309503
10
118.06915619392838
20
101.69352143079855
10
128.56915619392839
20
101.69352143079855
42
-0.41421356237309764
0
LWPOLYLINE
5
108
100
AcDbEntity
8
0
100
AcDbPolyline
90
8
70
1
43
0.0
10
118.06915619392838
20
118.69352143079853
10
128.56915619392839
20
118.69352143079857
42
-0.41421356237309243
10
130.56915619392842
20
116.69352143079857
10
130.56915619392842
20
106.19352143079854
42
-0.41421356237309503
10
128.56915619392839
20
104.19352143079854
10
118.06915619392838
20
104.19352143079855
42
-0.41421356237309503
10
116.06915619392838
20
106.19352143079854
10
116.06915619392839
20
116.69352143079855
42
-0.41421356237309503
0
LWPOLYLINE
5
109
100
AcDbEntity
8
0
100
AcDbPolyline
90
8
70
1
43
0.0
10
100.06915619392839
20
104.19352143079854
10
110.56915619392838
20
104.19352143079851
42
-0.41421356237309764
10
112.56915619392836
20
102.19352143079851
10
112.56915619392841
20
91.693521430798512
42
-0.41421356237309243
10
110.56915619392839
20
89.693521430798484
10
100.06915619392836
20
89.693521430798526
42
-0.41421356237309243
10
98.069156193928393
20
91.693521430798512
10
98.069156193928379
20
102.19352143079853
42
-0.41421356237309503
0
LWPOLYLINE
5
110
100
AcDbEntity
8
0
100
AcDbPolyline
90
8
70
1
43
0.0
10
134.06915619392839
20
103.69352143079853
10
134.06915619392839
20
114.19352143079855
42
-0.41421356237309503
10
136.06915619392839
20
116.19352143079853
10
146.56915619392836
20
116.19352143079854
42
-0.41421356237309764
10
148.56915619392839
20
114.19352143079855
10
148.56915619392834
20
103.69352143079853
42
-0.41421356237308982
10
146.56915619392842
20
101.69352143079857
10
136.06915619392842
20
101.69352143079854
42
-0.41421356237310025
0
LWPOLYLINE
5
111
100
AcDbEntity
8
0
100
AcDbPolyline
90
8
70
1
43
0.0
10
118.06915619392838
20
84.69352143079854
10
128.56915619392839
20
84.693521430798526
42
-0.41421356237309503
10
130.56915619392836
20
82.69352143079854
10
130.56915619392836
20
72.193521430798569
42
-0.41421356237309243
10
128.56915619392839
20
70.193521430798555
10
118.06915619392839
20
70.193521430798569
42
-0.41421356237310025
10
116.06915619392836
20
72.193521430798569
10
116.06915619392836
20
82.69352143079854
42
-0.41421356237309503
0
LWPOLYLINE
5
112
100
AcDbEntity
8
0
100
AcDbPolyline
90
8
70
1
43
0.0
10
98.069156193928393
20
74.693521430798569
10
98.069156193928393
20
85.193521430798569
42
-0.41421356237309764
10
100.06915619392841
20
87.193521430798569
10
110.56915619392838
20
87.193521430798569
42
-0.41421356237309503
10
112.56915619392836
20
85.193521430798569
10
112.56915619392836
20
74.693521430798569
42
-0.41421356237309764
10
110.56915619392838
20
72.693521430798555
10
100.06915619392842
20
72.693521430798569
42
-0.41421356237310025
0
LWPOLYLINE
5
113
100
AcDbEntity
8
0
100
AcDbPolyline
90
8
70
1
43
0.0
10
184.56915619392831
20
85.19352143079854
10
184.56915619392834
20
74.693521430798569
42
-0.41421356237310542
10
182.56915619392828
20
72.693521430798569
10
172.06915619392831
20
72.693521430798612
42
-0.41421356237309503
10
170.06915619392834
20
74.693521430798569
10
170.06915619392834
20
85.19352143079854
42
-0.41421356237309503
10
172.06915619392831
20
87.193521430798484
10
182.56915619392834
20
87.193521430798484
42
-0.41421356237309503
0
LWPOLYLINE
5
114
100
AcDbEntity
8
0
100
AcDbPolyline
90
8
70
1
43
0.0
10
80.069156193928364
20
108.69352143079851
10
80.06915619392835
20
119.19352143079851
42
-0.41421356237309764
10
82.069156193928379
20
121.19352143079853
10
92.569156193928407
20
121.19352143079851
42
-0.41421356237309243
10
94.569156193928379
20
119.19352143079851
10
94.569156193928293
20
108.6935214307985
42
-0.41421356237309243
10
92.569156193928407
20
106.6935214307986
10
82.069156193928364
20
106.69352143079851
42
-0.41421356237309503
0
LWPOLYLINE
5
115
100
AcDbEntity
8
0
100
AcDbPolyline
90
8
70
1
43
0.0
10
94.569173792233428
20
85.193537930317675
10
94.569172113162608
20
74.745399705369266
42
-0.41416086296686228
10
92.569531652509824
20
72.745400059096923
10
82.119515733275563
20
72.743521463115727
42
-0.41431629054244845
10
80.119156223153482
20
74.743863337787644
10
80.120942689813745
20
85.193878641107688
42
-0.41416344959857077
10
82.120942370087704
20
87.193536734118581
10
92.569173501732692
20
87.193538251728086
42
-0.41421365198541016
0
LWPOLYLINE
5
116
100
AcDbEntity
8
0
100
AcDbPolyline
90
8
70
1
43
0.0
10
80.069156193928364
20
91.693521430798512
10
80.06915619392835
20
102.19352143079853
42
-0.41421356237309764
10
82.069156193928379
20
104.19352143079854
10
92.569156193928407
20
104.19352143079851
42
-0.41421356237309243
10
94.569156193928379
20
102.19352143079853
10
94.569156193928421
20
91.693521430798512
42
-0.41421356237309243
10
92.569156193928407
20
89.693521430798484
10
82.069156193928364
20
89.693521430798526
42
-0.41421356237309503
0
LWPOLYLINE
5
117
100
AcDbEntity
8
0
100
AcDbPolyline
90
8
70
1
43
0.0
10
152.06915619392839
20
89.193521430798498
10
152.06915619392839
20
99.693521430798569
42
-0.41421356237309503
10
154.06915619392839
20
101.69352143079855
10
164.56915619392831
20
101.6935214307986
42
-0.41421356237309764
10
166.56915619392834
20
99.69352143079854
10
166.56915619392828
20
89.193521430798498
42
-0.41421356237309503
10
164.56915619392831
20
87.193521430798526
10
154.06915619392842
20
87.193521430798512
42
-0.41421356237310025
0
LWPOLYLINE
5
118
100
AcDbEntity
8
0
100
AcDbPolyline
90
20
70
1
43
0.0
10
76.499998290091753
20
53.500000797212124
10
114.09999744966626
20
53.500000797212124
10
114.09999744966626
20
50.999998860061169
10
132.09999704733491
20
50.999998860061169
10
132.09999704733491
20
48.499998915940523
10
150.59999663382769
20
48.499998915940523
10
150.59999663382769
20
50.999998860061169
10
168.59999623149633
20
50.999998860061169
10
168.59999623149633
20
53.499998804181814
10
188.10000000000014
20
53.499998804181814
10
188.10000000000014
20
123.68000587448478
10
166.77500792138744
20
123.68000587448478
10
166.77500792138744
20
120.64537817250908
10
149.27500709018204
20
120.64537817250908
10
149.27500709018204
20
118.3206789597921
10
133.24940499059491
20
118.3206789597921
10
133.25001086649854
20
120.79565207880208
10
115.49999741837382
20
120.79999729990959
10
115.49999741837382
20
123.29999724403024
10
76.499998290091753
20
123.29999724403024
0
LWPOLYLINE
5
119
100
AcDbEntity
8
0
100
AcDbPolyline
90
8
70
1
43
0.0
10
82.120942370087704
20
70.193536734118567
42
0.41416344959857077
10
80.120942689813702
20
68.193878641107673
10
80.119156223153482
20
57.743863337787637
42
0.41431629054244845
10
82.119515733275563
20
55.743521463115698
10
92.569531652509824
20
55.745400059096909
42
0.41416086296686228
10
94.569172113162608
20
57.745399705369252
10
94.569173792233428
20
68.19353793031766
42
0.41421365198541016
10
92.569173501732692
20
70.193538251728057
0
LWPOLYLINE
5
120
100
AcDbEntity
8
0
100
AcDbPolyline
90
8
70
1
43
0.0
10
110.56915619392838
20
55.693521430798533
10
100.06915619392842
20
55.69352143079854
42
-0.41421356237310025
10
98.069156193928393
20
57.693521430798533
10
98.069156193928393
20
68.19352143079854
42
-0.41421356237309764
10
100.06915619392841
20
70.19352143079854
10
110.56915619392838
20
70.19352143079854
42
-0.41421356237309503
10
112.56915619392836
20
68.19352143079854
10
112.56915619392836
20
57.69352143079854
42
-0.41421356237309764
0
LWPOLYLINE
5
121
100
AcDbEntity
8
0
100
AcDbPolyline
90
8
70
1
43
0.0
10
130.56915619392836
20
65.693521430798512
10
130.56915619392836
20
55.19352143079854
42
-0.41421356237309243
10
128.56915619392839
20
53.193521430798533
10
118.06915619392839
20
53.193521430798548
42
-0.41421356237310025
10
116.06915619392836
20
55.19352143079854
10
116.06915619392836
20
65.693521430798512
42
-0.41421356237309503
10
118.06915619392838
20
67.693521430798526
10
128.56915619392839
20
67.693521430798512
42
-0.41421356237309503
0
LWPOLYLINE
5
122
100
AcDbEntity
8
0
100
AcDbPolyline
90
8
70
1
43
0.0
10
136.06915619392842
20
65.19352143079854
10
146.56915619392839
20
65.193521430798484
42
-0.41421356237309243
10
148.56915619392839
20
63.193521430798498
10
148.56915619392839
20
52.693521430798533
42
-0.41421356237309503
10
146.56915619392839
20
50.69352143079854
10
136.06915619392845
20
50.69352143079854
42
-0.41421356237310281
10
134.06915619392839
20
52.693521430798533
10
134.06915619392834
20
63.193521430798498
42
-0.41421356237310025
0
LWPOLYLINE
5
123
100
AcDbEntity
8
0
100
AcDbPolyline
90
8
70
1
43
0.0
10
154.06915619392836
20
67.69352143079854
10
164.56915619392839
20
67.693521430798555
42
-0.4142135623730846
10
166.56915619392834
20
65.693521430798526
10
166.56915619392834
20
55.193521430798562
42
-0.41421356237309503
10
164.56915619392831
20
53.193521430798548
10
154.06915619392836
20
53.193521430798569
42
-0.41421356237309503
10
152.06915619392839
20
55.193521430798562
10
152.06915619392839
20
65.693521430798526
42
-0.41421356237309243
0
LWPOLYLINE
5
124
100
AcDbEntity
8
0
100
AcDbPolyline
90
8
70
1
43
0.0
10
184.56915619392831
20
68.193521430798512
10
184.56915619392834
20
57.69352143079854
42
-0.41421356237310542
10
182.56915619392828
20
55.693521430798548
10
172.06915619392831
20
55.693521430798597
42
-0.41421356237309503
10
170.06915619392834
20
57.693521430798555
10
170.06915619392834
20
68.193521430798512
42
-0.41421356237309503
10
172.06915619392831
20
70.193521430798469
10
182.56915619392834
20
70.193521430798469
42
-0.41421356237309503
0
ENDSEC
0
SECTION
2
OBJECTS
0
DICTIONARY
5
C
100
AcDbDictionary
3
ACAD_GROUP
350
D
3
ACAD_MLINESTYLE
350
17
0
DICTIONARY
5
D
100
AcDbDictionary
0
DICTIONARY
5
1A
330
C
100
AcDbDictionary
0
DICTIONARY
5
17
100
AcDbDictionary
0
ENDSEC
0
EOF
